<?xml version="1.0" encoding="UTF-8"?>
<svg width="100" height="100" viewBox="0 0 100 100" fill="none" xmlns="http://www.w3.org/2000/svg">
  <path d="M50 20C35.8 20 25 30.8 25 45c0 7.1 2.9 13.5 7.5 18.2C35.2 66.5 37 70.2 37 74v6h26v-6c0-3.8 1.8-7.5 4.5-10.8C72.1 58.5 75 52.1 75 45c0-14.2-10.8-25-25-25z" 
        fill="#2196F3" opacity="0.2"/>
  <path d="M50 25c-11 0-20 9-20 20 0 5.5 2.2 10.5 5.8 14.1C38.9 62.2 40 65.1 40 68v4h20v-4c0-2.9 1.1-5.8 4.2-8.9C67.8 55.5 70 50.5 70 45c0-11-9-20-20-20z"
        fill="#2196F3" opacity="0.4"/>
  <path d="M50 30c-8.3 0-15 6.7-15 15 0 4.1 1.7 7.8 4.4 10.6C41.7 58 42.5 60 42.5 62v2h15v-2c0-2 0.8-4 3.1-6.4C63.3 52.8 65 49.1 65 45c0-8.3-6.7-15-15-15z"
        fill="#2196F3"/>
  <path d="M45 74h10v6h-10z" fill="#2196F3"/>
</svg> 